<?xml version="1.0" encoding="UTF-8" standalone="no"?>
<!-- Created with Inkscape (http://www.inkscape.org/) -->

<svg
   xmlns:dc="http://purl.org/dc/elements/1.1/"
   xmlns:cc="http://creativecommons.org/ns#"
   xmlns:rdf="http://www.w3.org/1999/02/22-rdf-syntax-ns#"
   xmlns:svg="http://www.w3.org/2000/svg"
   xmlns="http://www.w3.org/2000/svg"
   version="1.1"
   width="160"
   height="160"
   id="svg2">
  <defs
     id="defs3" />
  <metadata
     id="metadata6">
    <rdf:RDF>
      <cc:Work
         rdf:about="">
        <dc:format>image/svg+xml</dc:format>
        <dc:type
           rdf:resource="http://purl.org/dc/dcmitype/StillImage" />
        <dc:title></dc:title>
      </cc:Work>
    </rdf:RDF>
  </metadata>
  <g
     transform="translate(0,-892.36218)"
     id="layer1"
     style="display:inline">
    <g
       transform="matrix(1.25,0,0,1.25,1.0242262e-4,-3.1738281e-4)"
       id="g3147"
       style="fill-rule:evenodd" />
    <path
       d="m 60.981227,922.10843 c 3.087875,-7.555 10.510125,-12.8825 19.175,-12.89 10.66925,-0.009 19.321,8.6425 19.321,19.31125 0,10.66875 -8.65175,19.32 -19.32075,19.32 -7.09275,0 -12.844,-5.75125 -12.844,-12.84375 0,-7.09125 5.75125,-12.8425 12.84375,-12.8425 4.602625,0 8.3345,3.7325 8.3345,8.33375 0,4.6025 -3.731875,8.335 -8.334625,8.335 -2.648125,0 -4.79625,-2.1475 -4.79625,-4.79625 0,-1.97875 1.199375,-3.6775 2.91075,-4.4125 0.42225,-0.1575 0.510375,-0.0263 0.179125,0.31 -0.43825,0.43375 -0.709625,1.035 -0.709625,1.69875 0,1.3325 1.08475,2.41625 2.416,2.41625 1.896875,0 3.43425,-1.5375 3.43425,-3.435 0,-1.89625 -1.537125,-3.43375 -3.43425,-3.43375 -3.883375,0 -7.0325,3.14875 -7.0325,7.0325 0,3.88375 3.149125,7.0325 7.0325,7.0325 5.89725,0 10.680375,-4.7825 10.680375,-10.68 0,-5.8975 -4.783375,-10.68 -10.680375,-10.68 -8.492875,0 -15.379375,6.88625 -15.379375,15.37875 0,8.49125 6.8865,15.37875 15.379375,15.37875 4.173625,0 8.0885,-1.11 11.464875,-3.0525 0.471625,1.2125 1.038375,2.6 1.2615,4.17 0.399,2.79875 0.308875,5.69 0.755,8.465 0.2925,1.82875 2.01725,3.66125 2.992375,5.16125 0.789375,1.21875 1.90425,3.47125 3.34225,4.0975 1.214748,0.52875 3.888378,0.45625 5.189248,0.7 4.94313,0.9325 8.452,2.3175 12.73737,4.94625 3.51025,2.15375 6.283,5.74875 6.37525,10.0025 0.0529,2.48375 -0.37875,5.235 -0.55387,7.735 -0.16,2.28625 -0.52513,4.5625 -0.40363,6.8625 0.14838,2.80752 2.83738,5.03872 5.29738,5.89002 2.16625,0.7487 6.5775,1.2612 8.19375,2.695 1.48375,1.3175 1.6825,4.5013 2.13,6.2913 0.31,1.2412 0.8075,2.925 1.10375,3.8287 0.2975,0.905 1.10625,2.5338 1.30875,2.9113 0.9425,1.7675 0.265,1.7137 -0.32375,3.1825 -0.22875,0.6337 -0.39125,1.5112 -0.445,2.0337 -0.0537,0.5263 -0.1475,2.6413 -0.1075,2.9913 0.04,0.3512 0.28375,1.0125 0.49875,1.5662 0.215,0.5538 0.39125,0.9275 0.56625,1.44 0.175,0.5125 0.325,0.9038 0,1.485 -0.32375,0.58 -0.81,0.7963 -1.42875,0.9938 -1.49875,0.49 -3.14625,0.9825 -4.73125,1.0137 -1.07875,0.023 -1.805,-0.055 -2.18375,-0.2975 -0.9775,-0.63 0.23625,-3.0337 0.53875,-3.775 0.405,-0.9812 1.20125,-2.4125 1.8475,-3.8925 0.64625,-1.485 0.67375,-2.0112 0.70125,-3.64 0.0463,-2.8225 -0.69875,-4.9712 -1.9675,-7.4387 -1.04375,-2.0338 -1.94,-3.7338 -4.22,-4.5038 -2.88,-0.9725 -7.80138,-0.6088 -11.38713,-1.1838 -4.36099,-0.7 -9.64474,-1.745 -13.23637,-4.3825 -0.32712,-0.24 -0.64687,-0.615 -0.90312,-0.135 -0.10813,0.2025 -0.35125,0.8638 -0.60675,1.4038 -0.48438,1.0237 -1.31038,1.725 -0.83588,2.8975 0.82538,2.04 1.6445,3.2675 1.11863,5.4988 -0.26975,1.145 -0.82175,1.3325 -1.698,1.67 -2.27275,0.8736 -5.148378,1.1536 -7.548003,1.4711 -1.630125,0.215 -3.720625,0.4714 -5.62025,1.2513 -1.114125,0.4575 -2.062375,1.4701 -2.3995,1.8212 -0.677125,0.7064 -1.150625,1.3125 -2.183125,1.4276 -0.24275,0.026 -0.714125,0.013 -1.06575,0.1749 -0.9075,0.4189 -0.754875,1.3276 -0.754875,2.1151 0,0.4588 -0.02662,1.0124 -0.309,1.525 -0.908625,1.6488 -4.14675,1.7313 -5.6875,1.1838 -0.943625,-0.335 -1.442625,-0.6575 -1.5235,-1.1564 -0.081,-0.5 0.08063,-0.8636 0.391875,-1.7961 0.309625,-0.9263 1.07825,-2.4789 1.7645,-3.6214 1.174375,-1.9575 3.0995,-3.5775 5.243375,-4.3687 1.147125,-0.4238 2.559875,-0.27 3.761,-0.4188 3.006,-0.375 5.77125,-1.84 7.74925,-4.1362 1.14175,-1.325 1.076875,-1.9287 0.06788,-3.2887 -2.35325,-3.1688 -4.709125,-6.065 -5.4595,-10.0438 -0.13025,-0.68872 -0.008,-0.69122 -0.78175,-0.80497 -3.298,-0.485 -6.8845,-1.45875 -9.9735,-2.66875 -4.625375,-1.81 -8.771375,-3.90625 -12.66875,-7.0375 -1.90975,-1.53375 -4.448125,-3.91 -5.041125,-4.5675 -0.34425,-0.3825 -1.577,-1.5925 -1.577,-1.5925 -2.02575,0.41875 -4.081875,0.3875 -6.118625,0.0538 -1.240875,-0.2025 -2.80425,-0.2825 -3.612125,-0.2825 -2.49525,0 -4.98475,0.2775 -7.467,0.485 -0.808875,0.0675 -3.0465,0.3925 -3.2615,0.44625 -0.59025,0.14625 -0.434125,0.3675 -0.0555,0.715 0.31025,0.28375 0.9305,0.9 1.91475,1.79125 0.984125,0.89125 2.425625,1.885 3.181125,2.30375 0.972375,0.53875 2.824,0.495 3.166625,1.525 0.06738,0.2025 0.25625,0.56875 0.4585,0.62125 0.20125,0.0512 0.391875,0.025 0.607375,-0.0538 0.215375,-0.08 0.3635,-0.2025 0.714375,-0.5275 0.349625,-0.3225 1.202125,-1.205 1.68375,-1.55125 1.145375,-0.825 2.586875,-0.42625 3.6395,0.36375 1.58375,1.18875 2.802875,5.11375 2.802875,7.0375 0,1.01625 -1.493375,0.755 -2.089125,0.635 -1.16113,-0.23375 -2.253505,-0.48875 -3.45013,-0.45875 -2.53075,0.0638 -4.689125,0.1625 -6.832375,-1.43125 -0.472625,-0.35125 -1.52375,-1.305 -2.210625,-1.9125 -0.687625,-0.6075 -2.494125,-2.06125 -3.6525,-2.95125 -1.91775,-1.475 -4.044625,-2.60375 -5.74175,-4.35625 -0.94925,-0.98 -1.539875,-1.905 -1.401625,-3.33 0.0545,-0.5625 0.402625,-1.31875 0.79425,-2.30375 0.32325,-0.81375 0.797375,-1.9325 1.644375,-2.33125 1.01075,-0.47625 3.329375,-0.6125 4.4075,-0.76875 2.848625,-0.41375 5.786375,-0.68625 8.585125,-1.34625 1.145375,-0.26875 3.019375,-0.8775 3.625875,-1.2675 1.300375,-0.83625 1.938875,-1.19375 0.472875,-2.30375 -0.498875,-0.37875 -1.5785,-1.375 -2.38775,-2.0625 -1.764,-1.5025 -3.7835,-3.01875 -5.90225,-3.98875 -1.6835,-0.77 -4.56025,-0.52125 -6.321125,-0.14875 -1.212625,0.25625 -2.305,1.0375 -2.64225,1.32125 -0.336625,0.2825 -1.792375,1.9125 -2.089125,2.25 -0.3565,0.40625 -1.456,2.0425 -1.967625,2.17 -0.929,0.2325 -2.354625,-0.33375 -2.534625,1.10625 -0.150125,1.20125 -0.109875,2.6275 -0.538,3.76125 -0.161375,0.4275 -0.459125,0.87125 -1.442625,1.3725 -1.692625,0.86125 -5.248125,0.72875 -6.886625,-0.405 -0.8775,-0.6075 -0.09,-1.405 0.430375,-1.96625 1.554875,-1.6775 3.166125,-3.10875 4.516,-5.0275 0.381,-0.5425 1.4015,-1.86 1.85925,-2.33125 1.117125,-1.15 2.422,-1.7375 3.801375,-2.49375 0.565,-0.31 1.38675,-0.79625 2.358875,-1.335 2.354375,-1.305 4.32475,-2.665 6.3615,-4.39375 0.919,-0.78 2.25325,-1.50125 3.490625,-1.5225 1.502625,-0.0263 2.757,1.01625 3.8955,1.86 3.01825,2.24 5.922,2.67125 9.40675,3.90875 0.378,0.135 0.853375,0.25625 0.9305,0.25625 0.107625,0 0.107875,-0.19 0.620625,-1.14625 1.085375,-2.0275 2.518125,-3.7575 3.962,-5.52625 0.78175,-0.95625 1.9005,-2.5075 2.22425,-2.9925 0.757,-1.1325 1.188,-2.4975 1.67125,-3.76 -1.57575,0.3575 -3.00075,1.5775 -4.205,2.575 -0.999125,0.82625 -2.066375,2.08375 -3.464625,2.12875 -0.82075,0.0275 -1.415,-0.1475 -2.533125,-0.43125 -1.119375,-0.2825 -2.35875,-0.835 -3.032875,-1.5625 -1.5085,-1.62875 -2.6305,-4.01875 -2.089,-6.24 0.687,-2.82 2.354125,-5.69125 3.760875,-8.24875 0.67325,-1.2275 1.9945,-3.49125 2.452375,-4.2725 0.45775,-0.7825 0.97025,-1.605 1.1865,-2.11625 0.216125,-0.51375 0.350125,-2.0775 0.4845,-2.7775 0.13525,-0.70125 0.674125,-1.7925 1.09125,-2.385 1.5765,-2.2325 2.794375,-3.1575 3.77625,-6.01125 z m -4.6185,14.60875 c -0.41325,0.6925 0.266875,1.1475 0.80225,0.61875 1.5005,-0.97875 1.3205,-0.57625 2.805625,-0.495 1.194875,0.0663 2.217375,-0.85 2.28275,-2.04375 0.02363,-0.42625 -0.07838,-0.83125 -0.272625,-1.1775 -1.35875,-0.195 -2.67025,-0.08 -3.94225,0.28875 l -1.67575,2.80875 z"
       id="path3133-7"
       style="fill:#2c2c2b;fill-rule:evenodd;stroke:none;display:inline" />
  </g>
</svg>
